<?xml version="1.0" encoding="UTF-8"?>
<svg id="comp-3" xmlns="http://www.w3.org/2000/svg" viewBox="0 0 180 230">
  <defs>
    <style>
      .cls-1 {
        fill: #416679;
      }

      .cls-2 {
        fill: #ecb5b6;
      }
    </style>
  </defs>
  <g>
    <path id="blue" class="cls-2" d="M42.56,101.25C52.7,47.14,104.78,11.5,158.88,21.64c0,0-4.28,22.82-8.87,47.31-10.14,54.1-62.22,89.74-116.32,79.61,0,0,4.28-22.82,8.87-47.31Z"/>
    <path id="pink" class="cls-1" d="M38.58,95.43C48.72,41.33,100.8,5.69,154.9,15.82c0,0-4.28,22.82-8.87,47.31-10.14,54.1-62.22,89.74-116.32,79.61,0,0,4.28-22.82,8.87-47.31Z"/>
  </g>
  <g>
    <path class="cls-2" d="M151.57,158.36s-4.28,22.82-8.87,47.31c-1.61,8.62-4.29,16.76-7.88,24.33H37.08c13.08-48,59.95-79.23,109.56-72.43,1.64.22,3.29.48,4.93.79Z"/>
    <path class="cls-1" d="M147.59,152.54s-.34,1.84-.95,5.03c-1.5,8.06-4.63,24.74-7.92,42.28-2.04,10.87-5.76,20.99-10.87,30.15H31.69c11.1-52.9,62.52-87.47,115.9-77.46Z"/>
  </g>
</svg>